<?xml version="1.0" standalone="no"?>
<!DOCTYPE svg PUBLIC "-//W3C//DTD SVG 20010904//EN"
 "http://www.w3.org/TR/2001/REC-SVG-20010904/DTD/svg10.dtd">
<svg version="1.0" xmlns="http://www.w3.org/2000/svg"
 width="1080.000000pt" height="1080.000000pt" viewBox="0 0 1080.000000 1080.000000"
 preserveAspectRatio="xMidYMid meet">

<g transform="translate(0.000000,1080.000000) scale(0.100000,-0.100000)"
fill="#000000" stroke="none">
<path d="M6467 9779 c-40 -558 -232 -1090 -592 -1644 -250 -384 -481 -669
-1161 -1430 -472 -528 -671 -766 -892 -1063 -497 -668 -753 -1216 -847 -1808
-39 -246 -28 -603 26 -866 124 -601 496 -1197 1054 -1687 174 -153 459 -371
470 -360 2 2 -49 87 -113 189 -441 705 -660 1204 -743 1694 -29 174 -36 453
-15 616 59 444 249 880 620 1415 137 199 366 499 726 950 714 898 986 1293
1230 1790 225 459 338 829 380 1240 17 162 7 503 -19 650 -29 166 -94 405
-110 405 -4 0 -11 -41 -14 -91z"/>
<path d="M7226 8343 c-2 -10 -8 -43 -11 -73 -32 -255 -126 -564 -250 -811
-211 -424 -429 -705 -1201 -1550 -502 -550 -791 -921 -998 -1283 -289 -503
-412 -991 -365 -1447 66 -646 446 -1238 1091 -1700 65 -46 140 -97 169 -113
50 -28 51 -28 38 -5 -7 13 -52 96 -101 183 -383 684 -533 1144 -515 1586 16
398 179 785 542 1295 98 137 177 240 581 755 347 443 530 699 694 976 219 368
373 752 435 1081 53 288 48 628 -15 873 -20 79 -79 250 -85 250 -2 0 -6 -8 -9
-17z"/>
<path d="M7681 6238 c-52 -205 -150 -422 -275 -607 -135 -200 -239 -321 -595
-696 -305 -320 -372 -393 -484 -523 -556 -643 -771 -1214 -667 -1763 87 -460
420 -881 894 -1130 53 -28 96 -46 96 -41 0 5 -41 106 -91 223 -164 385 -226
605 -236 840 -10 228 26 386 135 602 99 194 173 299 627 892 260 339 411 569
532 810 230 456 294 859 197 1233 -23 89 -90 252 -103 252 -3 0 -17 -42 -30
-92z"/>
</g>
</svg>
