<?xml version="1.0" standalone="no"?>
<!DOCTYPE svg PUBLIC "-//W3C//DTD SVG 20010904//EN"
 "http://www.w3.org/TR/2001/REC-SVG-20010904/DTD/svg10.dtd">
<svg version="1.0" xmlns="http://www.w3.org/2000/svg"
 width="1080.000000pt" height="1080.000000pt" viewBox="0 0 1080.000000 1080.000000"
 preserveAspectRatio="xMidYMid meet">

<g transform="translate(0.000000,1080.000000) scale(0.100000,-0.100000)"
fill="#000000" stroke="none">
<path d="M4068 7563 l-2158 -2158 667 -667 668 -668 2817 2817 c1550 1550
2818 2821 2818 2825 0 5 -597 8 -1327 8 l-1328 0 -2157 -2157z"/>
<path d="M5032 4577 l-1163 -1163 1188 -1182 1188 -1181 1318 -1 c799 0 1317
4 1315 9 -1 5 -525 534 -1162 1176 l-1159 1166 1161 1162 c639 639 1162 1165
1162 1170 0 4 -604 7 -1343 7 l-1342 0 -1163 -1163z"/>
</g>
</svg>
