<?xml version="1.0" standalone="no"?>
<!DOCTYPE svg PUBLIC "-//W3C//DTD SVG 20010904//EN"
 "http://www.w3.org/TR/2001/REC-SVG-20010904/DTD/svg10.dtd">
<svg version="1.0" xmlns="http://www.w3.org/2000/svg"
 width="880.000000pt" height="569.000000pt" viewBox="0 0 880.000000 569.000000"
 preserveAspectRatio="xMidYMid meet">

<g transform="translate(0.000000,569.000000) scale(0.100000,-0.100000)"
fill="#000000" stroke="none">
<path d="M4750 5279 c-164 -19 -339 -71 -467 -139 -313 -167 -547 -420 -631
-680 -62 -191 -50 -464 28 -645 l22 -50 29 33 c16 18 29 31 29 30 1 -2 7 -39
15 -82 8 -44 12 -83 9 -88 -3 -4 -23 -8 -46 -8 l-40 0 5 -42 c3 -24 26 -104
51 -179 42 -122 51 -140 95 -185 33 -33 56 -70 74 -116 44 -111 87 -169 268
-362 10 -11 21 -17 25 -14 3 4 -30 43 -74 87 -91 91 -143 165 -183 260 -38 90
-38 91 19 85 38 -5 57 -1 97 20 27 14 50 24 52 23 1 -2 -5 -29 -14 -61 l-16
-58 31 -29 c37 -34 54 -39 25 -6 -32 36 -35 45 -19 75 8 16 16 49 17 73 1 24
9 62 17 84 9 25 14 75 14 131 -1 104 11 134 45 116 19 -11 34 -42 68 -149 20
-65 82 -136 149 -171 45 -24 62 -27 146 -27 83 1 102 4 152 28 114 56 160 138
166 298 l4 107 67 5 c36 4 122 9 191 12 69 3 139 8 157 11 30 4 32 3 48 -47
10 -28 20 -75 24 -103 l6 -51 33 58 c89 157 222 232 287 161 35 -38 49 -116
34 -198 -21 -121 -108 -219 -260 -291 -30 -14 -42 -23 -28 -20 44 8 151 73
201 122 81 80 127 200 113 295 -11 74 87 334 155 411 27 31 30 41 30 103 0
197 -66 468 -156 644 -90 177 -206 296 -351 361 -38 17 -113 52 -168 80 -175
86 -333 112 -545 88z m284 -1040 c30 -108 109 -249 241 -431 l46 -63 -263 -5
c-145 -3 -263 -5 -263 -5 0 0 -10 18 -21 40 -34 63 -90 90 -189 90 -66 0 -90
-5 -137 -27 -77 -36 -124 -73 -136 -108 -11 -30 -35 -36 -157 -42 -46 -2 -50
-1 -53 22 -12 85 -174 138 -274 90 -23 -11 -43 -20 -45 -20 -2 0 -3 17 -3 38
0 52 17 66 179 146 160 81 309 172 397 244 35 28 66 52 68 52 9 0 -34 -92 -71
-153 -20 -33 -70 -102 -110 -155 l-75 -95 104 6 c119 6 178 24 313 96 120 63
228 145 335 253 47 47 88 87 91 87 3 1 13 -26 23 -60z m-384 -509 c11 -7 3
-10 -30 -10 -25 0 -83 -2 -130 -5 -83 -5 -84 -4 -45 9 46 17 183 20 205 6z
m-614 -28 l38 -19 -67 -7 c-37 -3 -96 -9 -132 -12 -41 -4 -65 -3 -65 4 0 9 37
38 70 54 25 13 115 1 156 -20z m782 -67 c1 -1 5 -31 8 -66 8 -81 -16 -180 -55
-229 -35 -45 -91 -73 -157 -78 -154 -13 -263 110 -276 313 -3 38 -2 40 28 43
l32 3 -4 -48 c-4 -45 -3 -46 6 -15 7 19 24 41 43 52 43 27 55 25 28 -4 -37
-39 -45 -89 -23 -139 41 -92 155 -117 214 -46 52 62 49 130 -7 186 l-33 33 44
0 c89 0 131 -33 145 -115 l6 -40 2 38 c1 40 -24 107 -40 107 -5 0 -9 5 -9 11
0 8 36 4 48 -6z m-703 -45 c4 -6 9 -53 12 -104 10 -158 -33 -236 -129 -236
-60 0 -88 15 -88 47 0 16 -9 65 -20 111 -24 100 -25 126 -4 146 17 18 99 22
109 6 3 -5 2 -10 -3 -10 -30 0 -42 -111 -18 -159 47 -90 120 -51 118 64 -2 70
-34 115 -97 134 -25 8 -18 9 42 10 40 1 75 -4 78 -9z m533 -23 c4 -33 -22 -47
-45 -24 -22 21 -8 59 20 55 16 -2 23 -11 25 -31z m-773 3 c-13 -15 -22 -17
-29 -10 -12 12 8 30 33 30 11 0 10 -5 -4 -20z m-36 -57 c11 -38 22 -85 25
-105 3 -21 9 -55 12 -75 5 -33 4 -35 -10 -24 -20 17 -76 193 -76 238 0 59 27
40 49 -34z m225 2 c19 -19 10 -45 -15 -45 -25 0 -35 26 -19 45 15 18 15 18 34
0z"/>
<path d="M1295 3638 c-60 -11 -111 -21 -112 -22 -1 -1 21 -147 48 -326 27
-179 63 -413 79 -520 16 -107 40 -269 54 -360 14 -91 46 -307 72 -480 l47
-315 111 -60 111 -60 -4 -140 c-2 -94 -8 -149 -17 -167 -19 -37 -18 -72 4 -89
31 -26 145 -75 149 -63 10 30 84 144 130 200 29 35 53 70 53 78 0 9 6 13 14
10 9 -3 19 4 26 18 20 37 52 68 72 68 36 0 17 -38 -48 -95 -96 -84 -224 -252
-224 -293 0 -7 22 -23 48 -36 l48 -24 364 36 c201 21 365 42 367 48 2 5 -11
18 -28 28 -24 14 -44 17 -85 13 -30 -3 -54 -2 -54 1 0 4 36 29 80 56 73 45 80
51 76 75 -3 14 -17 116 -31 226 -14 110 -32 245 -40 299 -8 55 -13 101 -11
104 3 2 17 -36 31 -84 46 -155 129 -394 137 -394 4 0 8 10 8 23 0 38 27 67 64
67 31 0 34 -3 40 -37 3 -21 6 -50 6 -65 0 -22 5 -28 23 -29 18 -1 17 -2 -8
-10 -19 -5 -31 -5 -36 3 -4 6 -11 8 -16 5 -5 -3 -21 0 -36 8 -33 17 -43 4 -27
-35 10 -25 48 -60 64 -60 3 0 3 15 1 33 -3 17 -3 25 1 17 17 -46 32 -63 62
-76 19 -8 36 -14 38 -14 9 0 2 68 -11 124 -13 54 -13 61 3 73 10 8 28 11 42 7
14 -3 44 -8 67 -11 46 -5 48 -8 58 -83 6 -44 6 -45 -26 -57 -32 -12 -69 -3
-69 17 0 14 -13 12 -34 -3 -14 -10 -17 -21 -12 -44 7 -28 15 -34 84 -59 42
-15 78 -28 80 -30 2 -1 -5 -58 -15 -125 -12 -85 -18 -184 -18 -314 0 -170 2
-194 20 -230 23 -46 82 -79 249 -140 56 -20 117 -43 136 -51 l35 -16 -36 39
c-66 70 -89 130 -102 268 -5 44 14 253 38 435 29 212 65 465 71 490 5 23 6 23
16 6 6 -10 8 -35 5 -55 -3 -20 -17 -110 -31 -201 -14 -91 -26 -177 -26 -191 0
-24 7 -27 178 -78 97 -29 240 -72 317 -96 77 -24 172 -53 210 -64 39 -11 108
-31 155 -45 47 -14 88 -22 92 -18 3 4 -7 70 -23 147 -79 377 -254 1365 -290
1635 -7 52 -16 99 -20 104 -4 5 -54 17 -111 27 -363 63 -576 101 -1078 195
-311 58 -567 107 -569 109 -3 4 48 27 88 40 18 5 21 12 16 38 -3 18 -16 114
-29 215 -13 101 -26 185 -28 188 -2 2 -182 42 -399 89 -217 47 -434 94 -483
105 -50 11 -90 19 -90 19 -1 -1 -50 -10 -111 -21z m1045 -2476 l145 -77 -65
-6 c-127 -13 -397 -21 -403 -13 -3 5 -3 22 0 37 7 35 140 150 163 141 8 -3 80
-40 160 -82z"/>
<path d="M5583 3540 c-18 -10 -46 -43 -62 -72 -32 -55 -41 -88 -15 -53 8 11
21 28 29 38 8 9 15 21 15 27 0 14 42 40 53 33 6 -3 7 -1 4 4 -8 13 15 23 51
23 21 0 24 2 12 10 -23 15 -52 12 -87 -10z"/>
<path d="M6365 3205 c-170 -27 -180 -33 -205 -145 -6 -30 -14 -63 -16 -72 -4
-13 -17 -7 -70 33 -107 81 -223 129 -311 129 -55 0 -37 -17 25 -22 63 -6 163
-47 239 -99 52 -35 228 -186 253 -216 8 -10 35 -43 60 -73 105 -127 183 -279
250 -492 75 -234 133 -378 200 -491 l59 -100 -32 -45 c-18 -24 -45 -55 -62
-68 -32 -25 -28 -31 8 -13 21 10 21 10 2 -6 -11 -8 -25 -13 -33 -10 -16 6 -94
-49 -84 -60 4 -5 2 -5 -5 -2 -6 4 -33 -4 -60 -17 -106 -53 -154 -54 -457 -10
l-118 18 33 31 c33 30 88 52 304 121 l90 29 5 65 c4 48 9 65 20 66 38 1 100
17 106 26 3 5 -23 40 -59 77 -66 68 -71 78 -85 159 l-7 43 -34 -29 c-33 -28
-34 -29 -21 -68 7 -21 16 -44 21 -50 10 -13 39 -186 39 -236 0 -35 -2 -37 -47
-52 -100 -32 -294 -74 -516 -111 -33 -5 -37 -9 -35 -33 2 -32 -35 -103 -64
-121 -19 -12 -20 -10 -16 60 l3 71 -55 -5 c-251 -26 -358 -46 -416 -75 -91
-46 -168 -57 -248 -35 -57 15 -71 15 -103 4 -33 -12 -90 -51 -131 -88 -16 -15
-38 -17 -46 -4 -12 18 97 141 125 141 5 0 9 5 9 10 0 31 -120 -12 -166 -59
-21 -22 -41 -38 -44 -36 -12 8 -9 77 4 104 22 42 49 61 123 86 57 19 64 24 43
29 -27 6 -121 4 -114 -3 2 -2 -8 -12 -21 -23 -14 -11 -34 -40 -45 -64 -11 -24
-27 -44 -36 -44 -8 0 -12 -4 -9 -10 3 -5 2 -10 -4 -10 -16 0 -31 35 -31 73 0
47 53 123 114 165 58 38 117 42 184 12 54 -24 47 -11 -7 16 -23 10 -43 26 -46
36 -7 21 -90 98 -107 99 -7 0 -26 2 -42 4 -33 4 -56 -6 -106 -47 -42 -34 -86
-37 -95 -7 -22 69 90 149 209 149 69 -1 120 -26 197 -97 35 -33 87 -76 114
-95 77 -53 233 -128 269 -128 40 0 215 42 288 70 l57 21 -4 45 c-3 28 -1 43 5
39 6 -3 10 1 10 10 0 9 -3 14 -7 12 -5 -3 -8 5 -8 17 0 14 6 22 17 22 13 0 14
-3 6 -13 -18 -23 -1 -26 21 -4 46 46 164 50 205 6 l21 -23 82 21 c71 19 84 25
94 49 6 15 9 34 5 43 -6 16 -46 21 -46 6 0 -6 -12 -6 -30 1 -17 5 -40 8 -51 5
-32 -8 -49 2 -49 31 0 28 -38 171 -49 187 -4 6 -16 36 -26 67 -10 31 -21 56
-24 55 -12 -3 -115 26 -140 39 -14 8 -34 14 -43 14 -10 0 -18 4 -18 9 0 8 -34
21 -54 20 -5 -1 -12 4 -15 10 -4 6 -34 28 -66 50 -47 30 -63 36 -76 28 -14 -8
-25 -5 -53 17 -57 43 -82 68 -104 105 -31 51 -39 16 -14 -56 12 -32 34 -97 51
-145 26 -72 71 -298 71 -353 0 -10 -10 -15 -28 -15 -15 0 -52 -6 -82 -14 -30
-8 -68 -16 -85 -17 -16 -2 -37 -8 -45 -15 -8 -6 -66 -21 -128 -34 l-113 -23
-47 24 c-110 55 -276 8 -329 -95 -12 -22 -17 -26 -24 -15 -7 11 -9 11 -9 1 0
-23 57 -72 84 -72 14 0 40 13 58 29 18 15 42 33 54 39 36 19 92 3 135 -38 45
-43 49 -60 14 -60 -44 0 -93 -27 -143 -79 -47 -48 -53 -51 -100 -51 -35 0 -52
-4 -55 -15 -4 -8 -1 -17 5 -21 7 -4 8 -3 4 4 -5 9 6 12 38 12 25 0 46 -4 46
-10 0 -5 -5 -10 -11 -10 -5 0 -8 -4 -5 -8 2 -4 1 -14 -4 -22 -7 -11 -13 -11
-34 3 -32 22 -35 21 -29 -2 3 -12 17 -23 35 -26 16 -4 32 -14 35 -23 11 -30
36 -52 59 -52 18 0 22 -5 21 -26 -1 -17 6 -31 19 -40 20 -14 25 -11 75 40 30
30 65 57 79 61 24 6 24 6 -6 -23 -47 -45 -84 -97 -84 -120 0 -19 6 -22 38 -22
27 0 46 8 72 31 95 85 120 94 187 72 39 -14 58 -14 122 -4 42 6 105 25 141 42
57 27 191 54 211 43 4 -2 9 -17 12 -33 4 -16 16 -39 28 -50 19 -18 20 -21 6
-35 -8 -9 -17 -20 -19 -26 -1 -5 -37 -19 -78 -30 -109 -30 -110 -30 -70 -47
113 -46 160 -68 160 -76 0 -5 -12 -6 -27 -3 -16 3 -34 2 -41 -2 -17 -11 -62
-175 -62 -224 0 -42 23 -60 93 -73 20 -4 37 -13 37 -20 0 -7 21 -24 48 -37 42
-20 61 -23 172 -23 111 0 130 3 173 23 l47 24 0 79 c0 43 2 79 5 79 9 0 297
-121 336 -141 l39 -19 -1 -105 0 -105 -115 -36 c-91 -30 -114 -41 -114 -55 0
-16 8 -19 49 -19 l48 0 6 -52 c5 -45 2 -55 -14 -67 -17 -12 -19 -27 -19 -172
l0 -159 -35 -14 c-19 -8 -35 -17 -35 -20 0 -4 89 -6 198 -5 l197 1 -78 21 -77
22 6 135 c3 74 7 141 10 147 2 7 -7 19 -19 27 -20 13 -22 22 -19 80 l4 65 41
6 c214 34 448 116 504 177 33 35 53 91 53 146 0 39 -7 58 -35 98 -21 30 -33
55 -29 64 4 8 10 76 15 150 4 74 17 178 29 230 15 66 23 146 27 265 5 159 7
172 28 195 13 14 25 34 27 45 2 11 10 20 18 20 8 0 70 -4 137 -9 116 -8 124
-7 168 15 85 43 139 126 171 264 23 103 23 357 -1 535 -20 151 -72 421 -84
433 -10 10 -77 -16 -103 -40 -16 -14 -23 -13 -92 16 -104 43 -241 79 -370 96
-131 18 -370 18 -481 0z m-1078 -827 c-3 -8 -6 -5 -6 6 -1 11 2 17 5 13 3 -3
4 -12 1 -19z m60 -210 c-3 -8 -6 -5 -6 6 -1 11 2 17 5 13 3 -3 4 -12 1 -19z
m460 -50 c-3 -8 -6 -5 -6 6 -1 11 2 17 5 13 3 -3 4 -12 1 -19z m-461 -175 c25
-115 49 -194 70 -232 31 -56 30 -69 -3 -77 -16 -3 -44 -10 -63 -15 -66 -17
-118 -11 -182 22 -108 54 -232 136 -277 183 l-44 45 39 6 c75 13 329 65 384
79 30 8 58 14 62 15 4 1 10 -11 14 -26z m1471 -16 c5 -6 5 -148 0 -153 -5 -6
-58 90 -78 143 -9 26 -9 26 33 19 23 -4 43 -8 45 -9z m-340 -69 c-3 -8 -6 -5
-6 6 -1 11 2 17 5 13 3 -3 4 -12 1 -19z m-597 -12 c0 -3 -4 -8 -10 -11 -5 -3
-10 -1 -10 4 0 6 5 11 10 11 6 0 10 -2 10 -4z m-453 -58 c-3 -8 -6 -5 -6 6 -1
11 2 17 5 13 3 -3 4 -12 1 -19z m-667 -253 c-33 -19 -50 -18 -26 0 11 8 27 15
35 15 10 -1 7 -6 -9 -15z m1137 -41 c-3 -3 -12 -4 -19 -1 -8 3 -5 6 6 6 11 1
17 -2 13 -5z m935 -29 c11 -55 -104 -133 -286 -195 -106 -35 -155 -37 -239 -9
-99 33 -96 39 28 55 56 7 208 45 270 68 53 19 132 59 175 89 40 28 46 27 52
-8z m-915 -101 c-3 -3 -12 -4 -19 -1 -8 3 -5 6 6 6 11 1 17 -2 13 -5z m16
-113 c120 -58 4 -127 -202 -119 -168 7 -242 51 -175 105 41 33 94 42 219 40
92 -2 118 -6 158 -26z m-403 -256 l0 -105 -34 0 c-58 0 -67 18 -49 97 23 102
29 113 58 113 l25 0 0 -105z"/>
<path d="M5621 1217 c-103 -28 -31 -62 134 -62 104 0 185 15 185 35 0 30 -236
50 -319 27z m224 -16 l40 -8 -28 -11 c-16 -7 -38 -11 -50 -11 -17 1 -18 2 -4
6 36 9 3 23 -56 23 -73 0 -109 -8 -100 -22 3 -6 0 -9 -6 -7 -20 7 -14 24 11
31 32 9 145 8 193 -1z"/>
<path d="M5276 3077 c-9 -24 -32 -63 -52 -85 -27 -32 -33 -46 -26 -58 9 -16
10 -15 16 3 4 11 15 31 26 43 20 23 64 129 57 137 -2 2 -12 -16 -21 -40z"/>
<path d="M4236 2955 c-3 -9 -6 -31 -5 -48 1 -28 2 -26 10 12 9 46 6 65 -5 36z"/>
<path d="M5168 2932 c-14 -34 -327 -235 -483 -309 -77 -37 -84 -38 -185 -38
-96 0 -110 2 -159 28 -44 24 -53 25 -47 11 4 -10 1 -21 -6 -27 -9 -6 -8 -7 5
-3 10 3 40 -5 68 -19 141 -72 314 -25 567 154 57 40 106 71 109 67 3 -3 1 -23
-5 -45 -15 -49 -1 -94 61 -189 23 -37 50 -83 59 -102 9 -19 32 -70 52 -112 34
-75 55 -103 41 -55 -11 35 -118 252 -127 255 -4 2 -5 9 -2 14 4 6 3 8 -2 5 -5
-3 -23 22 -39 56 -34 70 -41 161 -14 178 18 11 109 11 169 -1 25 -4 46 -7 48
-6 6 6 -117 46 -142 46 -36 0 -33 11 14 50 39 33 50 50 31 50 -5 0 -11 -4 -13
-8z"/>
<path d="M5216 2893 c-6 -14 -5 -15 5 -6 7 7 10 15 7 18 -3 3 -9 -2 -12 -12z"/>
<path d="M4285 2860 c-24 -5 -19 -7 30 -12 33 -3 69 -9 80 -14 14 -5 17 -4 10
4 -15 16 -85 29 -120 22z"/>
<path d="M4260 2701 c0 -6 5 -13 10 -16 6 -3 10 1 10 9 0 9 -4 16 -10 16 -5 0
-10 -4 -10 -9z"/>
<path d="M4185 2670 c-3 -5 -2 -10 4 -10 5 0 13 5 16 10 3 6 2 10 -4 10 -5 0
-13 -4 -16 -10z"/>
<path d="M4246 2583 c-6 -14 -5 -15 5 -6 7 7 10 15 7 18 -3 3 -9 -2 -12 -12z"/>
<path d="M4272 2560 c0 -14 2 -19 5 -12 2 6 2 18 0 25 -3 6 -5 1 -5 -13z"/>
<path d="M4291 2554 c0 -11 3 -14 6 -6 3 7 2 16 -1 19 -3 4 -6 -2 -5 -13z"/>
<path d="M4142 2415 c0 -16 2 -22 5 -12 2 9 2 23 0 30 -3 6 -5 -1 -5 -18z"/>
<path d="M4321 2424 c0 -11 3 -14 6 -6 3 7 2 16 -1 19 -3 4 -6 -2 -5 -13z"/>
<path d="M4332 2330 c0 -14 2 -19 5 -12 2 6 2 18 0 25 -3 6 -5 1 -5 -13z"/>
<path d="M6370 2286 c0 -7 4 -26 9 -42 5 -16 12 -46 16 -68 11 -64 17 -32 10
48 -5 55 -11 76 -21 76 -8 0 -14 -6 -14 -14z"/>
<path d="M5134 2171 c-172 -87 -426 -162 -543 -161 -50 1 -108 18 -143 44 -13
9 -33 23 -45 32 -18 13 -23 14 -23 3 0 -8 31 -32 68 -54 65 -39 69 -40 157
-39 54 0 112 7 144 17 30 9 71 17 91 17 20 0 40 4 46 8 5 5 29 14 54 21 25 7
64 21 87 31 23 11 50 17 60 14 15 -5 16 -4 3 5 -12 9 -13 11 -1 11 18 0 139
59 146 71 4 5 15 9 25 9 13 0 17 5 14 15 -9 21 -16 19 -140 -44z"/>
<path d="M4341 2174 c0 -11 3 -14 6 -6 3 7 2 16 -1 19 -3 4 -6 -2 -5 -13z"/>
<path d="M4212 2130 c0 -14 2 -19 5 -12 2 6 2 18 0 25 -3 6 -5 1 -5 -13z"/>
<path d="M4191 2124 c0 -11 3 -14 6 -6 3 7 2 16 -1 19 -3 4 -6 -2 -5 -13z"/>
<path d="M4341 2124 c0 -11 3 -14 6 -6 3 7 2 16 -1 19 -3 4 -6 -2 -5 -13z"/>
<path d="M4365 2120 c-4 -12 -5 -24 -2 -27 3 -2 8 5 12 17 4 12 5 24 2 27 -3
2 -8 -5 -12 -17z"/>
<path d="M4212 2045 c0 -16 2 -22 5 -12 2 9 2 23 0 30 -3 6 -5 -1 -5 -18z"/>
<path d="M4221 1964 c0 -11 3 -14 6 -6 3 7 2 16 -1 19 -3 4 -6 -2 -5 -13z"/>
<path d="M4412 1870 c0 -19 2 -27 5 -17 2 9 2 25 0 35 -3 9 -5 1 -5 -18z"/>
<path d="M6213 1873 c9 -2 23 -2 30 0 6 3 -1 5 -18 5 -16 0 -22 -2 -12 -5z"/>
<path d="M4281 1744 c0 -11 3 -14 6 -6 3 7 2 16 -1 19 -3 4 -6 -2 -5 -13z"/>
<path d="M4431 1724 c0 -11 3 -14 6 -6 3 7 2 16 -1 19 -3 4 -6 -2 -5 -13z"/>
<path d="M4271 1710 c0 -8 4 -22 9 -30 12 -18 12 -2 0 25 -6 13 -9 15 -9 5z"/>
<path d="M4302 1660 c0 -14 2 -19 5 -12 2 6 2 18 0 25 -3 6 -5 1 -5 -13z"/>
<path d="M4409 1612 c5 -34 6 -35 9 -8 2 16 0 32 -5 37 -5 5 -7 -7 -4 -29z"/>
<path d="M4446 1608 c3 -5 10 -6 15 -3 13 9 11 12 -6 12 -8 0 -12 -4 -9 -9z"/>
<path d="M1160 1227 l0 -114 49 -26 49 -27 6 -72 c3 -40 15 -251 26 -468 11
-217 23 -423 26 -457 l6 -63 109 0 109 0 0 105 c0 58 2 105 5 105 2 0 87 -47
188 -105 l185 -105 848 2 848 3 -184 101 c-102 56 -266 145 -365 199 -99 54
-299 163 -445 243 -564 309 -530 292 -601 292 -123 0 -186 34 -196 106 -6 44
-3 42 -268 185 -33 18 -133 72 -223 121 -90 48 -165 88 -167 88 -3 0 -5 -51
-5 -113z"/>
<path d="M4341 1304 c0 -11 3 -14 6 -6 3 7 2 16 -1 19 -3 4 -6 -2 -5 -13z"/>
<path d="M4491 1274 c0 -11 3 -14 6 -6 3 7 2 16 -1 19 -3 4 -6 -2 -5 -13z"/>
<path d="M4362 1170 c0 -14 2 -19 5 -12 2 6 2 18 0 25 -3 6 -5 1 -5 -13z"/>
<path d="M4382 1090 c0 -14 2 -19 5 -12 2 6 2 18 0 25 -3 6 -5 1 -5 -13z"/>
<path d="M5025 1061 l-140 -48 40 -17 c40 -17 40 -17 143 21 98 36 131 60 117
83 -8 13 0 15 -160 -39z"/>
<path d="M1850 945 c0 -44 75 -82 146 -73 25 3 18 8 -59 49 -84 45 -87 46 -87
24z"/>
<path d="M4566 941 c-3 -5 1 -14 8 -20 12 -10 13 -8 9 8 -6 23 -9 25 -17 12z"/>
<path d="M4455 818 c3 -16 1 -28 -5 -28 -5 0 -10 -5 -10 -12 0 -8 5 -7 15 3
12 12 13 21 5 40 -10 24 -10 24 -5 -3z"/>
<path d="M5196 661 c-4 -5 0 -11 6 -14 10 -4 10 -7 1 -18 -10 -10 -16 -9 -31
4 -25 22 -49 13 -55 -21 -7 -34 1 -42 18 -18 8 10 18 15 23 12 16 -10 112 27
112 43 0 12 -3 12 -12 3 -17 -17 -41 -15 -34 3 6 16 -19 21 -28 6z"/>
<path d="M4338 517 l282 -142 0 -42 c0 -24 4 -43 8 -43 14 0 744 266 775 282
27 14 23 66 -7 79 -20 10 -49 2 -182 -46 -88 -32 -195 -71 -239 -86 -44 -16
-141 -51 -215 -78 l-135 -49 -267 134 c-147 74 -276 134 -285 133 -10 0 109
-64 265 -142z"/>
<path d="M5052 610 c-18 -11 -32 -24 -32 -30 0 -17 29 -23 53 -11 l22 11 -22
-5 c-12 -3 -24 -2 -27 3 -7 12 12 29 39 34 12 2 16 6 9 10 -6 4 -25 -2 -42
-12z"/>
<path d="M4958 579 c-24 -14 -22 -27 5 -32 l22 -4 -22 -2 c-13 0 -23 -6 -23
-12 0 -12 39 -2 58 15 14 14 6 46 -12 46 -6 0 -19 -5 -28 -11z"/>
<path d="M4865 540 c-3 -5 -4 -10 0 -10 3 0 1 -9 -5 -20 -12 -23 2 -27 19 -6
7 8 21 12 31 9 22 -6 26 7 8 25 -15 15 -45 16 -53 2z"/>
<path d="M4789 520 c-21 -12 -14 -61 7 -53 8 3 12 8 9 11 -2 3 4 11 15 19 11
8 20 18 20 24 0 12 -30 11 -51 -1z m26 -10 c3 -5 1 -10 -4 -10 -6 0 -11 5 -11
10 0 6 2 10 4 10 3 0 8 -4 11 -10z"/>
</g>
</svg>
